<svg xmlns="http://www.w3.org/2000/svg" enable-background="new 0 0 512 512" viewBox="0 0 512 512" id="elephant">
  <path d="M172.6 276.4c-4.1 48.5-22.7 103.7-58.9 137.4-3.2 2.9.9 8 4.4 5.4 39.3-30.1 63.4-74.4 76.5-122.5-1.8-4.8-5.4-14.2-6.8-18.5C184.5 277.4 176.8 277.1 172.6 276.4zM339.4 276.4c-4.4.8-11.7 1-15.1 1.9-1.4 4.2-5 13.4-6.8 18.5 13.1 48.1 37.2 92.5 76.5 122.5 3.5 2.6 7.5-2.5 4.4-5.4C362.2 380.1 343.5 325 339.4 276.4zM152.2 247.4c-1.6-8.9 3.2-22.4 9.5-35.3 0 0 0-.1.1-.1 6.2-19.3 2.9-32-6.2-42.9-7.9-9.4-12-20.2-12-31.2 0-10.1 3.5-20.1 10.3-29 15.9-20.8.6-50.8 33.6-72.8-11.1-5.2-23.3-10.6-37.5-13.6-35.6-7.5-98.3 37.9-128.2 63.2-29.9 25.3-23 36.8-14.4 56.9C16 163 71.8 219.3 92.5 240 113.2 260.7 157.6 276.3 152.2 247.4zM490.3 85.9c-29.9-25.3-92.6-70.7-128.2-63.2-14.3 3-26.4 8.4-37.5 13.6C344.9 49.8 348 68.9 351 93.1c2 16.1 17.4 21.1 17.4 44.9 0 34.5-31.7 31.9-18.2 74 .1.1.1.1.1.1 6.3 12.9 11.1 26.4 9.4 35.3-5.3 28.8 39.1 13.2 59.8-7.5 20.7-20.7 76.5-77 85.1-97.2C513.2 122.7 520.1 111.2 490.3 85.9z"></path>
  <path d="M342.5,223.9c-2.1-8.8-6.8-16.2-6.2-33.2c0.4-10.6,5-20.3,11.7-28.4c6.1-7.3,9.5-15.5,9.5-24.2c0-20-14.9-23.7-17.3-43.6c-3.1-24.6-6.9-46.1-32.6-54.3c-34.4-10.9-68.8-10.9-103.2,0c-26.2,8.3-29.7,30.5-32.6,54.3c-0.9,7.8-4.5,15-9.2,21.2c-5.2,6.9-8.1,14.4-8.1,22.4c0,8.7,3.4,16.9,9.5,24.2c6.8,8.1,11.3,17.9,11.7,28.4c0.6,17-4.1,24.5-6.2,33.2c-2.9,12.1-4.9,36.2,0.6,40.3c5.4,4,25.3,0,27.6,9.2c2.3,9.2,19.6,43.7,20.7,83.9c1.4,49.2,21.6,56.4,11.2,107.6c-0.8,3.5,8,5.3,10.2,12.3c5.7,17.8,27,16.7,32.4,0c2.2-7,10.9-8.7,10.2-12.3c-10.2-50.5,9.8-58.9,11.2-107.6c1.1-40.3,18.4-74.7,20.7-83.9c2.3-9.2,22.1-5.2,27.6-9.2C347.4,260.1,345.4,235.9,342.5,223.9z M207.8,168.2c-6.4,0-11.5-5.1-11.5-11.5c0-6.3,5.1-11.5,11.5-11.5c6.3,0,11.5,5.2,11.5,11.5C219.3,163.1,214.1,168.2,207.8,168.2z M304.2,168.2c-6.4,0-11.5-5.1-11.5-11.5c0-6.3,5.1-11.5,11.5-11.5c6.3,0,11.5,5.2,11.5,11.5C315.7,163.1,310.5,168.2,304.2,168.2z"></path>
</svg>
